<svg xmlns="http://www.w3.org/2000/svg" width="16.953" height="11.023" viewBox="0 0 16.953 11.023">
  <g id="arrow_back" data-name="arrow back" transform="translate(0 11.023) rotate(-90)">
    <path id="arrow_back-2" data-name="arrow back" d="M8.476,11.023a1.486,1.486,0,0,1-1.187-.551L.509,3.123a1.88,1.88,0,0,1,0-2.572,1.553,1.553,0,0,1,2.373,0L8.476,6.614,14.071.551a1.553,1.553,0,0,1,2.373,0,1.88,1.88,0,0,1,0,2.572L9.663,10.472A1.486,1.486,0,0,1,8.476,11.023Z" transform="translate(11.023 0) rotate(90)" fill="#b1b1b1"/>
  </g>
</svg>