<svg xmlns="http://www.w3.org/2000/svg" width="124.157" height="127.341" viewBox="0 0 124.157 127.341">
  <g id="Group_1228" data-name="Group 1228" transform="translate(-412 -462)">
    <g id="BG" transform="translate(412 462)" fill="rgba(106,112,126,0)" stroke-linecap="round" stroke-dasharray="5">
      <path d="M0,0H124.157V127.341H0Z" stroke="none"/>
      <path d="M 9.999992370605469 -7.62939453125e-06 L 14.99999237060547 -7.62939453125e-06 C 15.16567993164062 -7.62939453125e-06 15.29999542236328 0.134307861328125 15.29999542236328 0.2999954223632812 C 15.29999542236328 0.4656753540039062 15.16567993164062 0.5999908447265625 14.99999237060547 0.5999908447265625 L 9.999992370605469 0.5999908447265625 C 9.834312438964844 0.5999908447265625 9.699996948242188 0.4656753540039062 9.699996948242188 0.2999954223632812 C 9.699996948242188 0.134307861328125 9.834312438964844 -7.62939453125e-06 9.999992370605469 -7.62939453125e-06 Z M 19.99999237060547 -7.62939453125e-06 L 24.99999237060547 -7.62939453125e-06 C 25.16567993164062 -7.62939453125e-06 25.29999542236328 0.134307861328125 25.29999542236328 0.2999954223632812 C 25.29999542236328 0.4656753540039062 25.16567993164062 0.5999908447265625 24.99999237060547 0.5999908447265625 L 19.99999237060547 0.5999908447265625 C 19.83431243896484 0.5999908447265625 19.69999694824219 0.4656753540039062 19.69999694824219 0.2999954223632812 C 19.69999694824219 0.134307861328125 19.83431243896484 -7.62939453125e-06 19.99999237060547 -7.62939453125e-06 Z M 29.99999237060547 -7.62939453125e-06 L 34.99999237060547 -7.62939453125e-06 C 35.16567993164062 -7.62939453125e-06 35.29999542236328 0.134307861328125 35.29999542236328 0.2999954223632812 C 35.29999542236328 0.4656753540039062 35.16567993164062 0.5999908447265625 34.99999237060547 0.5999908447265625 L 29.99999237060547 0.5999908447265625 C 29.83431243896484 0.5999908447265625 29.69999694824219 0.4656753540039062 29.69999694824219 0.2999954223632812 C 29.69999694824219 0.134307861328125 29.83431243896484 -7.62939453125e-06 29.99999237060547 -7.62939453125e-06 Z M 39.99999237060547 -7.62939453125e-06 L 44.99999237060547 -7.62939453125e-06 C 45.16567993164062 -7.62939453125e-06 45.29999542236328 0.134307861328125 45.29999542236328 0.2999954223632812 C 45.29999542236328 0.4656753540039062 45.16567993164062 0.5999908447265625 44.99999237060547 0.5999908447265625 L 39.99999237060547 0.5999908447265625 C 39.83431243896484 0.5999908447265625 39.69999694824219 0.4656753540039062 39.69999694824219 0.2999954223632812 C 39.69999694824219 0.134307861328125 39.83431243896484 -7.62939453125e-06 39.99999237060547 -7.62939453125e-06 Z M 49.99999237060547 -7.62939453125e-06 L 54.99999237060547 -7.62939453125e-06 C 55.16567993164062 -7.62939453125e-06 55.29999542236328 0.134307861328125 55.29999542236328 0.2999954223632812 C 55.29999542236328 0.4656753540039062 55.16567993164062 0.5999908447265625 54.99999237060547 0.5999908447265625 L 49.99999237060547 0.5999908447265625 C 49.83431243896484 0.5999908447265625 49.69999694824219 0.4656753540039062 49.69999694824219 0.2999954223632812 C 49.69999694824219 0.134307861328125 49.83431243896484 -7.62939453125e-06 49.99999237060547 -7.62939453125e-06 Z M 59.99999237060547 -7.62939453125e-06 L 64.99999237060547 -7.62939453125e-06 C 65.16567993164062 -7.62939453125e-06 65.29999542236328 0.134307861328125 65.29999542236328 0.2999954223632812 C 65.29999542236328 0.4656753540039062 65.16567993164062 0.5999908447265625 64.99999237060547 0.5999908447265625 L 59.99999237060547 0.5999908447265625 C 59.83431243896484 0.5999908447265625 59.69999694824219 0.4656753540039062 59.69999694824219 0.2999954223632812 C 59.69999694824219 0.134307861328125 59.83431243896484 -7.62939453125e-06 59.99999237060547 -7.62939453125e-06 Z M 69.99999237060547 -7.62939453125e-06 L 74.99999237060547 -7.62939453125e-06 C 75.16567993164062 -7.62939453125e-06 75.29999542236328 0.134307861328125 75.29999542236328 0.2999954223632812 C 75.29999542236328 0.4656753540039062 75.16567993164062 0.5999908447265625 74.99999237060547 0.5999908447265625 L 69.99999237060547 0.5999908447265625 C 69.83431243896484 0.5999908447265625 69.69999694824219 0.4656753540039062 69.69999694824219 0.2999954223632812 C 69.69999694824219 0.134307861328125 69.83431243896484 -7.62939453125e-06 69.99999237060547 -7.62939453125e-06 Z M 79.99999237060547 -7.62939453125e-06 L 84.99999237060547 -7.62939453125e-06 C 85.16567993164062 -7.62939453125e-06 85.29999542236328 0.134307861328125 85.29999542236328 0.2999954223632812 C 85.29999542236328 0.4656753540039062 85.16567993164062 0.5999908447265625 84.99999237060547 0.5999908447265625 L 79.99999237060547 0.5999908447265625 C 79.83431243896484 0.5999908447265625 79.69999694824219 0.4656753540039062 79.69999694824219 0.2999954223632812 C 79.69999694824219 0.134307861328125 79.83431243896484 -7.62939453125e-06 79.99999237060547 -7.62939453125e-06 Z M 89.99999237060547 -7.62939453125e-06 L 94.99999237060547 -7.62939453125e-06 C 95.16567993164062 -7.62939453125e-06 95.29999542236328 0.134307861328125 95.29999542236328 0.2999954223632812 C 95.29999542236328 0.4656753540039062 95.16567993164062 0.5999908447265625 94.99999237060547 0.5999908447265625 L 89.99999237060547 0.5999908447265625 C 89.83431243896484 0.5999908447265625 89.69999694824219 0.4656753540039062 89.69999694824219 0.2999954223632812 C 89.69999694824219 0.134307861328125 89.83431243896484 -7.62939453125e-06 89.99999237060547 -7.62939453125e-06 Z M 99.99999237060547 -7.62939453125e-06 L 104.9999923706055 -7.62939453125e-06 C 105.1656799316406 -7.62939453125e-06 105.2999954223633 0.134307861328125 105.2999954223633 0.2999954223632812 C 105.2999954223633 0.4656753540039062 105.1656799316406 0.5999908447265625 104.9999923706055 0.5999908447265625 L 99.99999237060547 0.5999908447265625 C 99.83431243896484 0.5999908447265625 99.69999694824219 0.4656753540039062 99.69999694824219 0.2999954223632812 C 99.69999694824219 0.134307861328125 99.83431243896484 -7.62939453125e-06 99.99999237060547 -7.62939453125e-06 Z M 109.9999923706055 -7.62939453125e-06 L 114.9999923706055 -7.62939453125e-06 C 115.1656799316406 -7.62939453125e-06 115.2999954223633 0.134307861328125 115.2999954223633 0.2999954223632812 C 115.2999954223633 0.4656753540039062 115.1656799316406 0.5999908447265625 114.9999923706055 0.5999908447265625 L 109.9999923706055 0.5999908447265625 C 109.8343124389648 0.5999908447265625 109.6999969482422 0.4656753540039062 109.6999969482422 0.2999954223632812 C 109.6999969482422 0.134307861328125 109.8343124389648 -7.62939453125e-06 109.9999923706055 -7.62939453125e-06 Z M 119.9999923706055 -7.62939453125e-06 L 124.1569290161133 -7.62939453125e-06 L 124.1569290161133 0.5999908447265625 C 124.1569290161133 0.7369384765625 124.1569290161133 0.8430633544921875 124.1569290161133 0.8430633544921875 C 124.1569290161133 1.008743286132812 124.0226135253906 1.143058776855469 123.8569259643555 1.143058776855469 C 123.6912460327148 1.143058776855469 123.5569305419922 1.008743286132812 123.5569305419922 0.8430633544921875 L 123.5569305419922 0.5999908447265625 L 119.9999923706055 0.5999908447265625 C 119.8343124389648 0.5999908447265625 119.6999969482422 0.4656753540039062 119.6999969482422 0.2999954223632812 C 119.6999969482422 0.134307861328125 119.8343124389648 -7.62939453125e-06 119.9999923706055 -7.62939453125e-06 Z M 123.8569259643555 5.543060302734375 C 124.0226135253906 5.543060302734375 124.1569290161133 5.677375793457031 124.1569290161133 5.843063354492188 C 124.1569290161133 5.843063354492188 124.1569290161133 10.84306335449219 124.1569290161133 10.84306335449219 C 124.1569290161133 11.00874328613281 124.0226135253906 11.14305877685547 123.8569259643555 11.14305877685547 C 123.6912460327148 11.14305877685547 123.5569305419922 11.00874328613281 123.5569305419922 10.84306335449219 L 123.5569305419922 5.843063354492188 C 123.5569305419922 5.677375793457031 123.6912460327148 5.543060302734375 123.8569259643555 5.543060302734375 Z M 123.8569259643555 15.54306030273438 C 124.0226135253906 15.54306030273438 124.1569290161133 15.67737579345703 124.1569290161133 15.84306335449219 C 124.1569290161133 15.84306335449219 124.1569290161133 20.84306335449219 124.1569290161133 20.84306335449219 C 124.1569290161133 21.00874328613281 124.0226135253906 21.14305877685547 123.8569259643555 21.14305877685547 C 123.6912460327148 21.14305877685547 123.5569305419922 21.00874328613281 123.5569305419922 20.84306335449219 L 123.5569305419922 15.84306335449219 C 123.5569305419922 15.67737579345703 123.6912460327148 15.54306030273438 123.8569259643555 15.54306030273438 Z M 123.8569259643555 25.54306030273438 C 124.0226135253906 25.54306030273438 124.1569290161133 25.67737579345703 124.1569290161133 25.84306335449219 C 124.1569290161133 25.84306335449219 124.1569290161133 30.84306335449219 124.1569290161133 30.84306335449219 C 124.1569290161133 31.00874328613281 124.0226135253906 31.14305877685547 123.8569259643555 31.14305877685547 C 123.6912460327148 31.14305877685547 123.5569305419922 31.00874328613281 123.5569305419922 30.84306335449219 L 123.5569305419922 25.84306335449219 C 123.5569305419922 25.67737579345703 123.6912460327148 25.54306030273438 123.8569259643555 25.54306030273438 Z M 123.8569259643555 35.54306030273438 C 124.0226135253906 35.54306030273438 124.1569290161133 35.67737579345703 124.1569290161133 35.84306335449219 C 124.1569290161133 35.84306335449219 124.1569290161133 40.84306335449219 124.1569290161133 40.84306335449219 C 124.1569290161133 41.00874328613281 124.0226135253906 41.14305877685547 123.8569259643555 41.14305877685547 C 123.6912460327148 41.14305877685547 123.5569305419922 41.00874328613281 123.5569305419922 40.84306335449219 L 123.5569305419922 35.84306335449219 C 123.5569305419922 35.67737579345703 123.6912460327148 35.54306030273438 123.8569259643555 35.54306030273438 Z M 123.8569259643555 45.54306030273438 C 124.0226135253906 45.54306030273438 124.1569290161133 45.67737579345703 124.1569290161133 45.84306335449219 C 124.1569290161133 45.84306335449219 124.1569290161133 50.84306335449219 124.1569290161133 50.84306335449219 C 124.1569290161133 51.00874328613281 124.0226135253906 51.14305877685547 123.8569259643555 51.14305877685547 C 123.6912460327148 51.14305877685547 123.5569305419922 51.00874328613281 123.5569305419922 50.84306335449219 L 123.5569305419922 45.84306335449219 C 123.5569305419922 45.67737579345703 123.6912460327148 45.54306030273438 123.8569259643555 45.54306030273438 Z M 123.8569259643555 55.54306030273438 C 124.0226135253906 55.54306030273438 124.1569290161133 55.67737579345703 124.1569290161133 55.84306335449219 C 124.1569290161133 55.84306335449219 124.1569290161133 60.84306335449219 124.1569290161133 60.84306335449219 C 124.1569290161133 61.00874328613281 124.0226135253906 61.14305877685547 123.8569259643555 61.14305877685547 C 123.6912460327148 61.14305877685547 123.5569305419922 61.00874328613281 123.5569305419922 60.84306335449219 L 123.5569305419922 55.84306335449219 C 123.5569305419922 55.67737579345703 123.6912460327148 55.54306030273438 123.8569259643555 55.54306030273438 Z M 123.8569259643555 65.54306030273438 C 124.0226135253906 65.54306030273438 124.1569290161133 65.67737579345703 124.1569290161133 65.84306335449219 C 124.1569290161133 65.84306335449219 124.1569290161133 70.84306335449219 124.1569290161133 70.84306335449219 C 124.1569290161133 71.00874328613281 124.0226135253906 71.14305877685547 123.8569259643555 71.14305877685547 C 123.6912460327148 71.14305877685547 123.5569305419922 71.00874328613281 123.5569305419922 70.84306335449219 L 123.5569305419922 65.84306335449219 C 123.5569305419922 65.67737579345703 123.6912460327148 65.54306030273438 123.8569259643555 65.54306030273438 Z M 123.8569259643555 75.54306030273438 C 124.0226135253906 75.54306030273438 124.1569290161133 75.67737579345703 124.1569290161133 75.84306335449219 C 124.1569290161133 75.84306335449219 124.1569290161133 80.84306335449219 124.1569290161133 80.84306335449219 C 124.1569290161133 81.00874328613281 124.0226135253906 81.14305877685547 123.8569259643555 81.14305877685547 C 123.6912460327148 81.14305877685547 123.5569305419922 81.00874328613281 123.5569305419922 80.84306335449219 L 123.5569305419922 75.84306335449219 C 123.5569305419922 75.67737579345703 123.6912460327148 75.54306030273438 123.8569259643555 75.54306030273438 Z M 123.8569259643555 85.54306030273438 C 124.0226135253906 85.54306030273438 124.1569290161133 85.67737579345703 124.1569290161133 85.84306335449219 C 124.1569290161133 85.84306335449219 124.1569290161133 90.84306335449219 124.1569290161133 90.84306335449219 C 124.1569290161133 91.00874328613281 124.0226135253906 91.14305877685547 123.8569259643555 91.14305877685547 C 123.6912460327148 91.14305877685547 123.5569305419922 91.00874328613281 123.5569305419922 90.84306335449219 L 123.5569305419922 85.84306335449219 C 123.5569305419922 85.67737579345703 123.6912460327148 85.54306030273438 123.8569259643555 85.54306030273438 Z M 123.8569259643555 95.54306030273438 C 124.0226135253906 95.54306030273438 124.1569290161133 95.67737579345703 124.1569290161133 95.84306335449219 C 124.1569290161133 95.84306335449219 124.1569290161133 100.8430633544922 124.1569290161133 100.8430633544922 C 124.1569290161133 101.0087432861328 124.0226135253906 101.1430587768555 123.8569259643555 101.1430587768555 C 123.6912460327148 101.1430587768555 123.5569305419922 101.0087432861328 123.5569305419922 100.8430633544922 L 123.5569305419922 95.84306335449219 C 123.5569305419922 95.67737579345703 123.6912460327148 95.54306030273438 123.8569259643555 95.54306030273438 Z M 123.8569259643555 105.5430603027344 C 124.0226135253906 105.5430603027344 124.1569290161133 105.677375793457 124.1569290161133 105.8430633544922 C 124.1569290161133 105.8430633544922 124.1569290161133 110.8430633544922 124.1569290161133 110.8430633544922 C 124.1569290161133 111.0087432861328 124.0226135253906 111.1430587768555 123.8569259643555 111.1430587768555 C 123.6912460327148 111.1430587768555 123.5569305419922 111.0087432861328 123.5569305419922 110.8430633544922 L 123.5569305419922 105.8430633544922 C 123.5569305419922 105.677375793457 123.6912460327148 105.5430603027344 123.8569259643555 105.5430603027344 Z M 123.8569259643555 115.5430603027344 C 124.0226135253906 115.5430603027344 124.1569290161133 115.677375793457 124.1569290161133 115.8430633544922 C 124.1569290161133 115.8430633544922 124.1569290161133 120.8430633544922 124.1569290161133 120.8430633544922 C 124.1569290161133 121.0087432861328 124.0226135253906 121.1430587768555 123.8569259643555 121.1430587768555 C 123.6912460327148 121.1430587768555 123.5569305419922 121.0087432861328 123.5569305419922 120.8430633544922 L 123.5569305419922 115.8430633544922 C 123.5569305419922 115.677375793457 123.6912460327148 115.5430603027344 123.8569259643555 115.5430603027344 Z M 123.8569259643555 125.5430603027344 C 124.0226135253906 125.5430603027344 124.1569290161133 125.677375793457 124.1569290161133 125.8430633544922 C 124.1569290161133 125.8430633544922 124.1569290161133 127.3408126831055 124.1569290161133 127.3408126831055 L 123.5569305419922 127.3408126831055 C 122.5561141967773 127.3408126831055 120.6546783447266 127.3408126831055 120.6546783447266 127.3408126831055 C 120.4889907836914 127.3408126831055 120.3546752929688 127.2064971923828 120.3546752929688 127.0408096313477 C 120.3546752929688 126.875129699707 120.4889907836914 126.7408065795898 120.6546783447266 126.7408065795898 L 123.5569305419922 126.7408065795898 L 123.5569305419922 125.8430633544922 C 123.5569305419922 125.677375793457 123.6912460327148 125.5430603027344 123.8569259643555 125.5430603027344 Z M 110.6546783447266 126.7408065795898 L 115.6546783447266 126.7408065795898 C 115.8203582763672 126.7408065795898 115.9546813964844 126.875129699707 115.9546813964844 127.0408096313477 C 115.9546813964844 127.2064971923828 115.8203582763672 127.3408126831055 115.6546783447266 127.3408126831055 C 115.6546783447266 127.3408126831055 110.6546783447266 127.3408126831055 110.6546783447266 127.3408126831055 C 110.4889907836914 127.3408126831055 110.3546752929688 127.2064971923828 110.3546752929688 127.0408096313477 C 110.3546752929688 126.875129699707 110.4889907836914 126.7408065795898 110.6546783447266 126.7408065795898 Z M 100.6546783447266 126.7408065795898 L 105.6546783447266 126.7408065795898 C 105.8203582763672 126.7408065795898 105.9546813964844 126.875129699707 105.9546813964844 127.0408096313477 C 105.9546813964844 127.2064971923828 105.8203582763672 127.3408126831055 105.6546783447266 127.3408126831055 C 105.6546783447266 127.3408126831055 100.6546783447266 127.3408126831055 100.6546783447266 127.3408126831055 C 100.4889984130859 127.3408126831055 100.3546752929688 127.2064971923828 100.3546752929688 127.0408096313477 C 100.3546752929688 126.875129699707 100.4889984130859 126.7408065795898 100.6546783447266 126.7408065795898 Z M 90.65467834472656 126.7408065795898 L 95.65467834472656 126.7408065795898 C 95.82035827636719 126.7408065795898 95.95468139648438 126.875129699707 95.95468139648438 127.0408096313477 C 95.95468139648438 127.2064971923828 95.82035827636719 127.3408126831055 95.65467834472656 127.3408126831055 C 95.65467834472656 127.3408126831055 90.65467834472656 127.3408126831055 90.65467834472656 127.3408126831055 C 90.48899841308594 127.3408126831055 90.35467529296875 127.2064971923828 90.35467529296875 127.0408096313477 C 90.35467529296875 126.875129699707 90.48899841308594 126.7408065795898 90.65467834472656 126.7408065795898 Z M 80.65467834472656 126.7408065795898 L 85.65467834472656 126.7408065795898 C 85.82035827636719 126.7408065795898 85.95468139648438 126.875129699707 85.95468139648438 127.0408096313477 C 85.95468139648438 127.2064971923828 85.82035827636719 127.3408126831055 85.65467834472656 127.3408126831055 C 85.65467834472656 127.3408126831055 80.65467834472656 127.3408126831055 80.65467834472656 127.3408126831055 C 80.48899841308594 127.3408126831055 80.35467529296875 127.2064971923828 80.35467529296875 127.0408096313477 C 80.35467529296875 126.875129699707 80.48899841308594 126.7408065795898 80.65467834472656 126.7408065795898 Z M 70.65467834472656 126.7408065795898 L 75.65467834472656 126.7408065795898 C 75.82035827636719 126.7408065795898 75.95468139648438 126.875129699707 75.95468139648438 127.0408096313477 C 75.95468139648438 127.2064971923828 75.82035827636719 127.3408126831055 75.65467834472656 127.3408126831055 C 75.65467834472656 127.3408126831055 70.65467834472656 127.3408126831055 70.65467834472656 127.3408126831055 C 70.48899841308594 127.3408126831055 70.35467529296875 127.2064971923828 70.35467529296875 127.0408096313477 C 70.35467529296875 126.875129699707 70.48899841308594 126.7408065795898 70.65467834472656 126.7408065795898 Z M 60.65467834472656 126.7408065795898 L 65.65467834472656 126.7408065795898 C 65.82035827636719 126.7408065795898 65.95468139648438 126.875129699707 65.95468139648438 127.0408096313477 C 65.95468139648438 127.2064971923828 65.82035827636719 127.3408126831055 65.65467834472656 127.3408126831055 C 65.65467834472656 127.3408126831055 60.65467834472656 127.3408126831055 60.65467834472656 127.3408126831055 C 60.48899459838867 127.3408126831055 60.35467910766602 127.2064971923828 60.35467910766602 127.0408096313477 C 60.35467910766602 126.875129699707 60.48899459838867 126.7408065795898 60.65467834472656 126.7408065795898 Z M 50.65467834472656 126.7408065795898 L 55.65467834472656 126.7408065795898 C 55.82035827636719 126.7408065795898 55.95467376708984 126.875129699707 55.95467376708984 127.0408096313477 C 55.95467376708984 127.2064971923828 55.82035827636719 127.3408126831055 55.65467834472656 127.3408126831055 C 55.65467834472656 127.3408126831055 50.65467834472656 127.3408126831055 50.65467834472656 127.3408126831055 C 50.48899078369141 127.3408126831055 50.35467529296875 127.2064971923828 50.35467529296875 127.0408096313477 C 50.35467529296875 126.875129699707 50.48899078369141 126.7408065795898 50.65467834472656 126.7408065795898 Z M 40.65467834472656 126.7408065795898 L 45.65467834472656 126.7408065795898 C 45.82035827636719 126.7408065795898 45.95467376708984 126.875129699707 45.95467376708984 127.0408096313477 C 45.95467376708984 127.2064971923828 45.82035827636719 127.3408126831055 45.65467834472656 127.3408126831055 C 45.65467834472656 127.3408126831055 40.65467834472656 127.3408126831055 40.65467834472656 127.3408126831055 C 40.48899078369141 127.3408126831055 40.35467529296875 127.2064971923828 40.35467529296875 127.0408096313477 C 40.35467529296875 126.875129699707 40.48899078369141 126.7408065795898 40.65467834472656 126.7408065795898 Z M 30.65467834472656 126.7408065795898 L 35.65467834472656 126.7408065795898 C 35.82035827636719 126.7408065795898 35.95467376708984 126.875129699707 35.95467376708984 127.0408096313477 C 35.95467376708984 127.2064971923828 35.82035827636719 127.3408126831055 35.65467834472656 127.3408126831055 C 35.65467834472656 127.3408126831055 30.65467834472656 127.3408126831055 30.65467834472656 127.3408126831055 C 30.48899078369141 127.3408126831055 30.35467529296875 127.2064971923828 30.35467529296875 127.0408096313477 C 30.35467529296875 126.875129699707 30.48899078369141 126.7408065795898 30.65467834472656 126.7408065795898 Z M 20.65467834472656 126.7408065795898 L 25.65467834472656 126.7408065795898 C 25.82035827636719 126.7408065795898 25.95467376708984 126.875129699707 25.95467376708984 127.0408096313477 C 25.95467376708984 127.2064971923828 25.82035827636719 127.3408126831055 25.65467834472656 127.3408126831055 C 25.65467834472656 127.3408126831055 20.65467834472656 127.3408126831055 20.65467834472656 127.3408126831055 C 20.48899078369141 127.3408126831055 20.35467529296875 127.2064971923828 20.35467529296875 127.0408096313477 C 20.35467529296875 126.875129699707 20.48899078369141 126.7408065795898 20.65467834472656 126.7408065795898 Z M 10.65467834472656 126.7408065795898 L 15.65467834472656 126.7408065795898 C 15.82035827636719 126.7408065795898 15.95467376708984 126.875129699707 15.95467376708984 127.0408096313477 C 15.95467376708984 127.2064971923828 15.82035827636719 127.3408126831055 15.65467834472656 127.3408126831055 C 15.65467834472656 127.3408126831055 10.65467834472656 127.3408126831055 10.65467834472656 127.3408126831055 C 10.48899078369141 127.3408126831055 10.35467529296875 127.2064971923828 10.35467529296875 127.0408096313477 C 10.35467529296875 126.875129699707 10.48899078369141 126.7408065795898 10.65467834472656 126.7408065795898 Z M 0.6546783447265625 126.7408065795898 L 5.654678344726562 126.7408065795898 C 5.820358276367188 126.7408065795898 5.954673767089844 126.875129699707 5.954673767089844 127.0408096313477 C 5.954673767089844 127.2064971923828 5.820358276367188 127.3408126831055 5.654678344726562 127.3408126831055 C 5.654678344726562 127.3408126831055 0.6546783447265625 127.3408126831055 0.6546783447265625 127.3408126831055 C 0.4889907836914062 127.3408126831055 0.35467529296875 127.2064971923828 0.35467529296875 127.0408096313477 C 0.35467529296875 126.875129699707 0.4889907836914062 126.7408065795898 0.6546783447265625 126.7408065795898 Z M 0.2999954223632812 117.6954956054688 C 0.4656753540039062 117.6954956054688 0.5999908447265625 117.8298110961914 0.5999908447265625 117.995491027832 L 0.5999908447265625 122.995491027832 C 0.5999908447265625 123.1611785888672 0.4656753540039062 123.2954940795898 0.2999954223632812 123.2954940795898 C 0.134307861328125 123.2954940795898 -7.62939453125e-06 123.1611785888672 -7.62939453125e-06 122.995491027832 L -7.62939453125e-06 117.995491027832 C -7.62939453125e-06 117.8298110961914 0.134307861328125 117.6954956054688 0.2999954223632812 117.6954956054688 Z M 0.2999954223632812 107.6954956054688 C 0.4656753540039062 107.6954956054688 0.5999908447265625 107.8298110961914 0.5999908447265625 107.995491027832 L 0.5999908447265625 112.995491027832 C 0.5999908447265625 113.1611785888672 0.4656753540039062 113.2954940795898 0.2999954223632812 113.2954940795898 C 0.134307861328125 113.2954940795898 -7.62939453125e-06 113.1611785888672 -7.62939453125e-06 112.995491027832 L -7.62939453125e-06 107.995491027832 C -7.62939453125e-06 107.8298110961914 0.134307861328125 107.6954956054688 0.2999954223632812 107.6954956054688 Z M 0.2999954223632812 97.69549560546875 C 0.4656753540039062 97.69549560546875 0.5999908447265625 97.82981109619141 0.5999908447265625 97.99549102783203 L 0.5999908447265625 102.995491027832 C 0.5999908447265625 103.1611785888672 0.4656753540039062 103.2954940795898 0.2999954223632812 103.2954940795898 C 0.134307861328125 103.2954940795898 -7.62939453125e-06 103.1611785888672 -7.62939453125e-06 102.995491027832 L -7.62939453125e-06 97.99549102783203 C -7.62939453125e-06 97.82981109619141 0.134307861328125 97.69549560546875 0.2999954223632812 97.69549560546875 Z M 0.2999954223632812 87.69549560546875 C 0.4656753540039062 87.69549560546875 0.5999908447265625 87.82981109619141 0.5999908447265625 87.99549865722656 L 0.5999908447265625 92.99549865722656 C 0.5999908447265625 93.16117858886719 0.4656753540039062 93.29549407958984 0.2999954223632812 93.29549407958984 C 0.134307861328125 93.29549407958984 -7.62939453125e-06 93.16117858886719 -7.62939453125e-06 92.99549865722656 L -7.62939453125e-06 87.99549865722656 C -7.62939453125e-06 87.82981109619141 0.134307861328125 87.69549560546875 0.2999954223632812 87.69549560546875 Z M 0.2999954223632812 77.69549560546875 C 0.4656753540039062 77.69549560546875 0.5999908447265625 77.82981109619141 0.5999908447265625 77.99549865722656 L 0.5999908447265625 82.99549865722656 C 0.5999908447265625 83.16117858886719 0.4656753540039062 83.29549407958984 0.2999954223632812 83.29549407958984 C 0.134307861328125 83.29549407958984 -7.62939453125e-06 83.16117858886719 -7.62939453125e-06 82.99549865722656 L -7.62939453125e-06 77.99549865722656 C -7.62939453125e-06 77.82981109619141 0.134307861328125 77.69549560546875 0.2999954223632812 77.69549560546875 Z M 0.2999954223632812 67.69549560546875 C 0.4656753540039062 67.69549560546875 0.5999908447265625 67.82981109619141 0.5999908447265625 67.99549865722656 L 0.5999908447265625 72.99549865722656 C 0.5999908447265625 73.16117858886719 0.4656753540039062 73.29549407958984 0.2999954223632812 73.29549407958984 C 0.134307861328125 73.29549407958984 -7.62939453125e-06 73.16117858886719 -7.62939453125e-06 72.99549865722656 L -7.62939453125e-06 67.99549865722656 C -7.62939453125e-06 67.82981109619141 0.134307861328125 67.69549560546875 0.2999954223632812 67.69549560546875 Z M 0.2999954223632812 57.69549560546875 C 0.4656753540039062 57.69549560546875 0.5999908447265625 57.82981109619141 0.5999908447265625 57.99549102783203 L 0.5999908447265625 62.99549102783203 C 0.5999908447265625 63.16117858886719 0.4656753540039062 63.29549407958984 0.2999954223632812 63.29549407958984 C 0.134307861328125 63.29549407958984 -7.62939453125e-06 63.16117858886719 -7.62939453125e-06 62.99549102783203 L -7.62939453125e-06 57.99549102783203 C -7.62939453125e-06 57.82981109619141 0.134307861328125 57.69549560546875 0.2999954223632812 57.69549560546875 Z M 0.2999954223632812 47.69549560546875 C 0.4656753540039062 47.69549560546875 0.5999908447265625 47.82981109619141 0.5999908447265625 47.99549102783203 L 0.5999908447265625 52.99549102783203 C 0.5999908447265625 53.16117858886719 0.4656753540039062 53.29549407958984 0.2999954223632812 53.29549407958984 C 0.134307861328125 53.29549407958984 -7.62939453125e-06 53.16117858886719 -7.62939453125e-06 52.99549102783203 L -7.62939453125e-06 47.99549102783203 C -7.62939453125e-06 47.82981109619141 0.134307861328125 47.69549560546875 0.2999954223632812 47.69549560546875 Z M 0.2999954223632812 37.69549560546875 C 0.4656753540039062 37.69549560546875 0.5999908447265625 37.82981109619141 0.5999908447265625 37.99549102783203 L 0.5999908447265625 42.99549102783203 C 0.5999908447265625 43.16117858886719 0.4656753540039062 43.29549407958984 0.2999954223632812 43.29549407958984 C 0.134307861328125 43.29549407958984 -7.62939453125e-06 43.16117858886719 -7.62939453125e-06 42.99549102783203 L -7.62939453125e-06 37.99549102783203 C -7.62939453125e-06 37.82981109619141 0.134307861328125 37.69549560546875 0.2999954223632812 37.69549560546875 Z M 0.2999954223632812 27.69549560546875 C 0.4656753540039062 27.69549560546875 0.5999908447265625 27.82981109619141 0.5999908447265625 27.99549102783203 L 0.5999908447265625 32.99549102783203 C 0.5999908447265625 33.16117858886719 0.4656753540039062 33.29549407958984 0.2999954223632812 33.29549407958984 C 0.134307861328125 33.29549407958984 -7.62939453125e-06 33.16117858886719 -7.62939453125e-06 32.99549102783203 L -7.62939453125e-06 27.99549102783203 C -7.62939453125e-06 27.82981109619141 0.134307861328125 27.69549560546875 0.2999954223632812 27.69549560546875 Z M 0.2999954223632812 17.69549560546875 C 0.4656753540039062 17.69549560546875 0.5999908447265625 17.82981109619141 0.5999908447265625 17.99549102783203 L 0.5999908447265625 22.99549102783203 C 0.5999908447265625 23.16117858886719 0.4656753540039062 23.29549407958984 0.2999954223632812 23.29549407958984 C 0.134307861328125 23.29549407958984 -7.62939453125e-06 23.16117858886719 -7.62939453125e-06 22.99549102783203 L -7.62939453125e-06 17.99549102783203 C -7.62939453125e-06 17.82981109619141 0.134307861328125 17.69549560546875 0.2999954223632812 17.69549560546875 Z M 0.2999954223632812 7.69549560546875 C 0.4656753540039062 7.69549560546875 0.5999908447265625 7.829811096191406 0.5999908447265625 7.995491027832031 L 0.5999908447265625 12.99549102783203 C 0.5999908447265625 13.16117858886719 0.4656753540039062 13.29549407958984 0.2999954223632812 13.29549407958984 C 0.134307861328125 13.29549407958984 -7.62939453125e-06 13.16117858886719 -7.62939453125e-06 12.99549102783203 L -7.62939453125e-06 7.995491027832031 C -7.62939453125e-06 7.829811096191406 0.134307861328125 7.69549560546875 0.2999954223632812 7.69549560546875 Z M -7.62939453125e-06 -7.62939453125e-06 L 4.999992370605469 -7.62939453125e-06 C 5.165679931640625 -7.62939453125e-06 5.299995422363281 0.134307861328125 5.299995422363281 0.2999954223632812 C 5.299995422363281 0.4656753540039062 5.165679931640625 0.5999908447265625 4.999992370605469 0.5999908447265625 L 0.5999908447265625 0.5999908447265625 L 0.5999908447265625 2.995491027832031 C 0.5999908447265625 3.161178588867188 0.4656753540039062 3.295494079589844 0.2999954223632812 3.295494079589844 C 0.134307861328125 3.295494079589844 -7.62939453125e-06 3.161178588867188 -7.62939453125e-06 2.995491027832031 L -7.62939453125e-06 -7.62939453125e-06 Z" stroke="none" fill="#b1b1b1"/>
    </g>
    <g id="Group_1076" data-name="Group 1076" transform="translate(432.877 498.626)">
      <g id="Group_1075" data-name="Group 1075" transform="translate(19.101)">
        <path id="Icon" d="M8.113,28.312a8.08,8.08,0,0,1-4.97-14.475,6.936,6.936,0,0,1,6.892-6.952,6.779,6.779,0,0,1,2.878.64,12.2,12.2,0,0,1,22.806.7,10.157,10.157,0,0,1-2.035,20.086H27.922a.713.713,0,0,1,0-1.425h5.762a8.727,8.727,0,0,0,1.388-17.33l-.429-.071-.132-.418a10.8,10.8,0,0,0-20.562-.3l-.29.84-.747-.468a5.427,5.427,0,0,0-2.877-.832,5.517,5.517,0,0,0-5.481,5.54l.036.6-.325.326A6.652,6.652,0,0,0,7.993,26.884l.144,0c.069,0,.142,0,.21,0H15.82a.713.713,0,0,1,0,1.425H8.384c-.034,0-.076,0-.124,0ZM21.165,27.6V15.039L15,21.268a.7.7,0,0,1-1,0,.719.719,0,0,1,0-1.008l7.368-7.447h0l.5-.5.5.5h0l7.367,7.447a.718.718,0,0,1,0,1.008.7.7,0,0,1-1,0l-6.165-6.229V27.6a.705.705,0,1,1-1.41,0Z" fill="#ff2740" stroke="#ff2740" stroke-width="0.2"/>
      </g>
      <text id="Upload_Image" data-name="Upload Image" transform="translate(39 50.625)" fill="#abafb3" font-size="12" font-family="CircularStd-Book, Circular Std Book" letter-spacing="0.02em"><tspan x="-38.67" y="0">Upload Image</tspan></text>
    </g>
  </g>
</svg>
