<svg id="Group_1210" data-name="Group 1210" xmlns="http://www.w3.org/2000/svg" xmlns:xlink="http://www.w3.org/1999/xlink" width="44.39" height="44.39" viewBox="0 0 44.39 44.39">
  <defs>
    <clipPath id="clip-path">
      <rect id="Rectangle_2417" data-name="Rectangle 2417" width="44.39" height="44.39" fill="#2b2b2b"/>
    </clipPath>
  </defs>
  <g id="Group_1209" data-name="Group 1209" transform="translate(0 0)" clip-path="url(#clip-path)">
    <path id="Path_523" data-name="Path 523" d="M14.707,3.061a2.6,2.6,0,1,0,2.6,2.6,2.6,2.6,0,0,0-2.6-2.6" transform="translate(19.238 4.866)" fill="#2b2b2b"/>
    <path id="Path_524" data-name="Path 524" d="M15.352,4.35A10.932,10.932,0,1,0,26.283,15.282,10.944,10.944,0,0,0,15.352,4.35m0,17.933a7,7,0,1,1,7-7,7.009,7.009,0,0,1-7,7" transform="translate(7.024 6.914)" fill="#2b2b2b"/>
    <path id="Path_525" data-name="Path 525" d="M31.053,44.39H13.332A13.348,13.348,0,0,1,0,31.055V13.332A13.348,13.348,0,0,1,13.332,0H31.053A13.348,13.348,0,0,1,44.387,13.332V31.055A13.349,13.349,0,0,1,31.053,44.39M13.332,4.176a9.167,9.167,0,0,0-9.158,9.155V31.055a9.169,9.169,0,0,0,9.158,9.158H31.053a9.168,9.168,0,0,0,9.158-9.158V13.332a9.166,9.166,0,0,0-9.158-9.155Z" transform="translate(0 0.001)" fill="#2b2b2b"/>
  </g>
</svg>