<svg id="Group_1214" data-name="Group 1214" xmlns="http://www.w3.org/2000/svg" xmlns:xlink="http://www.w3.org/1999/xlink" width="35.34" height="35.257" viewBox="0 0 35.34 35.257">
  <defs>
    <clipPath id="clip-path">
      <rect id="Rectangle_2419" data-name="Rectangle 2419" width="35.34" height="35.257" fill="#2b2b2b"/>
    </clipPath>
  </defs>
  <g id="Group_1213" data-name="Group 1213" transform="translate(0 0)" clip-path="url(#clip-path)">
    <path id="Path_527" data-name="Path 527" d="M.585,11.706H7.918V35.26H.585ZM4.252,0A4.245,4.245,0,1,1,0,4.241,4.244,4.244,0,0,1,4.252,0" transform="translate(0 -0.001)" fill="#2b2b2b"/>
    <path id="Path_528" data-name="Path 528" d="M4.831,4.879h7.022V8.1h.1a7.7,7.7,0,0,1,6.934-3.8c7.413,0,8.78,4.876,8.78,11.219V28.433H20.346V16.981c0-2.734-.054-6.245-3.8-6.245-3.811,0-4.394,2.975-4.394,6.046V28.433H4.831Z" transform="translate(7.678 6.826)" fill="#2b2b2b"/>
  </g>
</svg>