<svg xmlns="http://www.w3.org/2000/svg" width="17.009" height="19.999" viewBox="0 0 17.009 19.999">
  <path id="_2" data-name="2" d="M53.117,557.875a.649.649,0,0,1-.272-.528V554.93A8.479,8.479,0,1,1,62,546.477a12.109,12.109,0,0,1-8.3,11.488.653.653,0,0,1-.59-.09Zm1.037-13.136v2.608a.654.654,0,0,0,.654.652H56.76a1.694,1.694,0,0,1-.936,1.373.652.652,0,1,0,.585,1.166,3,3,0,0,0,1.67-2.694v-3.107a.651.651,0,0,0-.38-.592v.8H56.62v-.863H54.808A.653.653,0,0,0,54.154,544.739Zm-5.233,0v2.608a.654.654,0,0,0,.654.652h1.952a1.7,1.7,0,0,1-.936,1.373.652.652,0,1,0,.585,1.166,3,3,0,0,0,1.67-2.694v-2.9H52.31V544.1a.664.664,0,0,0-.118-.011H49.575A.653.653,0,0,0,48.92,544.739Z" transform="translate(-44.996 -537.999)" fill="#aaa"/>
</svg>