<svg xmlns="http://www.w3.org/2000/svg" xmlns:xlink="http://www.w3.org/1999/xlink" width="35.579" height="45.943" viewBox="0 0 35.579 45.943">
  <defs>
    <clipPath id="clip-path">
      <rect id="Rectangle_2421" data-name="Rectangle 2421" width="35.579" height="45.943" fill="#2b2b2b"/>
    </clipPath>
  </defs>
  <g id="Group_1218" data-name="Group 1218" transform="translate(0 0)">
    <g id="Group_1217" data-name="Group 1217" transform="translate(0 0)" clip-path="url(#clip-path)">
      <path id="Path_530" data-name="Path 530" d="M14.877,29.971c-.039.132-.075.243-.1.355-1.688,6.613-1.875,8.081-3.609,11.152a34.227,34.227,0,0,1-2.789,4.163c-.117.15-.225.344-.458.3-.254-.054-.274-.285-.3-.487A35.6,35.6,0,0,1,7.252,39.4c.088-2.641.414-3.55,3.822-17.873a1,1,0,0,0-.08-.6,10.069,10.069,0,0,1-.264-6.693c1.541-4.886,7.079-5.261,8.05-1.23.6,2.493-.984,5.756-2.2,10.58-1,3.98,3.682,6.807,7.685,3.9,3.692-2.677,5.127-9.1,4.852-13.648-.536-9.073-10.484-11.033-16.8-8.112C5.09,9.073,3.446,18.042,6.711,22.141c.417.523.735.839.6,1.37-.21.821-.4,1.647-.624,2.462a.871.871,0,0,1-1.289.58,7.4,7.4,0,0,1-3.022-2.266c-2.776-3.433-3.568-10.23.1-15.981C6.537,1.932,14.1-.647,21,.135c8.242.94,13.454,6.571,14.43,12.959.443,2.913.124,10.09-3.962,15.162-4.7,5.828-12.322,6.214-15.836,2.638a11.742,11.742,0,0,1-.753-.924" transform="translate(0 -0.002)" fill="#2b2b2b" fill-rule="evenodd"/>
    </g>
  </g>
</svg>