<svg id="Group_1212" data-name="Group 1212" xmlns="http://www.w3.org/2000/svg" xmlns:xlink="http://www.w3.org/1999/xlink" width="41.29" height="33.984" viewBox="0 0 41.29 33.984">
  <defs>
    <clipPath id="clip-path">
      <rect id="Rectangle_2418" data-name="Rectangle 2418" width="41.29" height="33.984" fill="#2b2b2b"/>
    </clipPath>
  </defs>
  <g id="Group_1211" data-name="Group 1211" transform="translate(0 0)" clip-path="url(#clip-path)">
    <path id="Path_526" data-name="Path 526" d="M41.12,4.073a17.05,17.05,0,0,1-4.176,1.191C37.617,5.15,38.6,3.936,39,3.444A7.64,7.64,0,0,0,40.385.917c.036-.072.062-.163-.01-.217a.233.233,0,0,0-.22.018,21.3,21.3,0,0,1-4.953,1.9.333.333,0,0,1-.339-.091,3.92,3.92,0,0,0-.435-.443,8.728,8.728,0,0,0-2.4-1.471,8.344,8.344,0,0,0-3.677-.59A8.762,8.762,0,0,0,24.862,1a8.958,8.958,0,0,0-2.814,2.3A8.661,8.661,0,0,0,20.365,6.67a9.127,9.127,0,0,0-.088,3.555c.026.2.008.225-.171.2C13.307,9.412,7.67,6.978,3.095,1.763c-.2-.225-.308-.225-.469.018-2,3-1.033,7.822,1.468,10.191.334.316.678.632,1.046.922a8.7,8.7,0,0,1-3.283-.922c-.2-.124-.3-.052-.316.173a5.25,5.25,0,0,0,.054.974,8.726,8.726,0,0,0,5.378,6.955,5.108,5.108,0,0,0,1.09.334,9.791,9.791,0,0,1-3.221.1c-.233-.044-.324.072-.233.3,1.416,3.861,4.474,5.01,6.763,5.665.308.054.614.054.922.124-.018.028-.036.028-.054.054-.759,1.16-3.392,2.02-4.619,2.449A16.546,16.546,0,0,1,.6,30c-.378-.057-.456-.052-.559,0s-.013.153.109.251c.479.316.966.6,1.46.867a23.232,23.232,0,0,0,4.692,1.875c8.428,2.328,17.923.619,24.251-5.67,4.971-4.938,6.711-11.747,6.711-18.565,0-.267.316-.414.5-.557a16.336,16.336,0,0,0,3.3-3.431,1.045,1.045,0,0,0,.22-.658V4.073c0-.109,0-.075-.171,0" transform="translate(-0.001 -0.001)" fill="#2b2b2b"/>
  </g>
</svg>