<svg id="Group_1216" data-name="Group 1216" xmlns="http://www.w3.org/2000/svg" xmlns:xlink="http://www.w3.org/1999/xlink" width="41.428" height="28.999" viewBox="0 0 41.428 28.999">
  <defs>
    <clipPath id="clip-path">
      <rect id="Rectangle_2420" data-name="Rectangle 2420" width="41.428" height="28.999" fill="#2b2b2b"/>
    </clipPath>
  </defs>
  <g id="Group_1215" data-name="Group 1215" transform="translate(0 0)" clip-path="url(#clip-path)">
    <path id="Path_529" data-name="Path 529" d="M41.428,9.091A9.091,9.091,0,0,0,32.337,0H9.091A9.091,9.091,0,0,0,0,9.091V19.909A9.091,9.091,0,0,0,9.091,29H32.337a9.091,9.091,0,0,0,9.091-9.091ZM27.757,15.31,17.332,20.468c-.409.22-1.8-.075-1.8-.541V9.342c0-.471,1.4-.766,1.81-.533l9.976,5.43c.419.238.857.841.435,1.072" transform="translate(0 0)" fill="#2b2b2b"/>
  </g>
</svg>